<?xml version="1.0" encoding="UTF-8" standalone="no"?>
<!DOCTYPE svg PUBLIC "-//W3C//DTD SVG 1.1//EN" "http://www.w3.org/Graphics/SVG/1.1/DTD/svg11.dtd">
<svg width="100%" height="100%" viewBox="0 0 525 90" version="1.1" xmlns="http://www.w3.org/2000/svg" xmlns:xlink="http://www.w3.org/1999/xlink" xml:space="preserve" style="fill-rule:evenodd;clip-rule:evenodd;stroke-linejoin:round;stroke-miterlimit:1.41421;">
    <g transform="matrix(2.84122,0,0,2.84122,-1305.85,-1551.35)">
        <g transform="matrix(1,0,0,1,-249.863,-23.3766)">
            <path d="M802.663,587.297L799.023,595.817L803.503,595.817L812.143,580.697L812.303,580.697L809.023,599.377L814.743,599.377L819.783,570.857L812.143,570.857L802.783,587.297L802.663,587.297Z" style="fill:white;fill-rule:nonzero;"/>
            <path d="M828.503,599.857C832.383,599.857 835.823,598.857 837.903,597.337L836.503,593.737C835.023,594.337 832.583,595.377 829.863,595.377C827.863,595.377 825.823,594.497 825.823,592.217C825.823,591.657 825.943,591.057 826.063,590.457L839.063,590.457C839.343,588.817 839.863,586.457 839.863,584.777C839.863,580.297 836.343,578.217 832.223,578.217C826.583,578.217 821.863,581.737 820.823,587.417C820.543,589.057 819.983,591.417 819.983,593.057C819.983,597.937 824.223,599.857 828.503,599.857ZM826.703,586.937C826.743,586.697 826.863,586.217 826.903,585.977C827.503,583.897 829.063,582.617 831.383,582.617C833.143,582.617 834.463,583.537 834.463,585.417C834.463,585.937 834.343,586.417 834.263,586.937L826.703,586.937Z" style="fill:white;fill-rule:nonzero;"/>
            <path d="M847.943,599.657C849.303,599.657 850.703,599.497 852.063,599.217L852.863,594.657C852.023,594.777 851.183,594.857 850.343,594.857C849.383,594.857 848.703,594.497 848.703,593.457C848.703,593.297 848.743,593.097 848.783,592.897L850.503,583.017L854.903,583.017L855.623,578.777L851.263,578.777L852.343,572.657L846.743,572.657L845.623,578.777L842.983,578.777L842.223,583.017L844.903,583.017L842.903,594.297C842.823,594.737 842.783,595.137 842.783,595.577C842.783,598.657 845.263,599.657 847.943,599.657Z" style="fill:white;fill-rule:nonzero;"/>
            <path d="M855.823,599.377L861.423,599.377L863.303,588.657C863.943,584.977 866.663,583.177 870.023,583.177C870.623,583.177 871.783,583.217 872.583,583.337L873.463,578.377C872.943,578.297 872.263,578.257 871.703,578.257C869.223,578.257 866.063,579.977 864.543,582.097L864.343,582.097L864.943,578.617L859.463,578.617L855.823,599.377Z" style="fill:white;fill-rule:nonzero;"/>
            <path d="M881.463,599.857C886.703,599.857 891.583,596.497 892.543,591.177L893.303,586.897C893.383,586.337 893.463,585.697 893.463,585.177C893.463,580.457 889.463,578.217 885.103,578.217C879.823,578.217 874.983,581.657 874.023,587.017L873.183,591.617C873.103,592.177 873.063,592.697 873.063,593.217C873.063,597.977 877.263,599.857 881.463,599.857ZM882.223,595.377C880.383,595.377 878.823,594.497 878.823,592.497C878.823,592.217 878.863,591.977 878.903,591.697L879.783,586.577C880.183,584.217 881.983,582.737 884.343,582.737C886.183,582.737 887.743,583.697 887.743,585.697C887.743,585.937 887.703,586.177 887.663,586.457L886.783,591.617C886.383,593.937 884.623,595.377 882.223,595.377Z" style="fill:white;fill-rule:nonzero;"/>
        </g>
        <g transform="matrix(1,0,0,1,-249.863,-23.3766)">
            <path d="M720.463,599.857C726.383,599.857 731.943,596.657 733.103,590.497L733.303,589.417L727.583,589.417C727.583,589.497 727.503,589.777 727.503,589.857C726.903,592.857 724.503,594.697 721.423,594.697C718.903,594.697 716.503,593.417 716.503,590.577C716.503,590.257 716.543,589.897 716.583,589.577C716.943,587.297 717.743,582.977 718.143,580.697C718.743,577.417 721.463,575.537 724.663,575.537C727.023,575.537 729.263,576.777 729.263,579.417C729.263,579.857 729.183,580.337 729.103,580.817L734.823,580.817C735.023,579.897 735.143,578.937 735.143,578.017C735.143,572.617 730.263,570.377 725.503,570.377C718.983,570.377 713.183,574.217 712.023,580.857C711.583,583.137 710.823,587.537 710.463,589.817C710.343,590.457 710.263,591.057 710.263,591.697C710.263,597.497 715.343,599.857 720.463,599.857Z" style="fill:white;fill-rule:nonzero;"/>
            <path d="M736.103,599.377L742.223,599.377L744.023,589.057L750.343,589.057C756.623,589.057 761.663,585.217 761.663,578.817C761.663,573.777 757.903,570.857 753.343,570.857L741.143,570.857L736.103,599.377ZM744.903,584.177L746.383,575.777L751.503,575.777C753.663,575.777 755.623,576.817 755.623,579.337C755.623,582.577 753.183,584.177 750.063,584.177L744.903,584.177Z" style="fill:white;fill-rule:nonzero;"/>
            <path d="M768.383,599.377L774.463,599.377L778.583,575.897L786.743,575.897L787.623,570.857L765.263,570.857L764.383,575.897L772.503,575.897L768.383,599.377Z" style="fill:white;fill-rule:nonzero;"/>
            <path d="M786.503,599.377L792.223,599.377L795.543,580.777L795.663,580.777L799.023,595.817L801.15,595.781L802.783,587.297L802.663,587.297L798.983,570.857L791.543,570.857L786.503,599.377Z" style="fill:white;fill-rule:nonzero;"/>
        </g>
    </g>
</svg>
